<?xml version="1.0" encoding="utf-8"?>
<!-- Generator: Adobe Illustrator 23.0.5, SVG Export Plug-In . SVG Version: 6.00 Build 0)  -->
<svg version="1.1" id="Layer_1" xmlns="http://www.w3.org/2000/svg" xmlns:xlink="http://www.w3.org/1999/xlink" x="0px" y="0px"
	 viewBox="0 0 288 81" style="enable-background:new 0 0 288 81;" xml:space="preserve">
<style type="text/css">
	.st0{fill:none;stroke:#FFFFFF;stroke-width:1.25;stroke-miterlimit:10;}
	.st1{fill:none;stroke:#000000;stroke-width:0.25;stroke-miterlimit:10;}
	.st2{fill:#01344E;}
	.st3{fill:#EE2529;}
	.st4{fill:url(#SVGID_1_);}
</style>
<g>
	<line class="st0" x1="-801" y1="-356.2" x2="-816" y2="-356.2"/>
	<line class="st0" x1="-792" y1="-365.2" x2="-792" y2="-380.2"/>
	<line class="st1" x1="-801" y1="-356.2" x2="-816" y2="-356.2"/>
	<line class="st1" x1="-792" y1="-365.2" x2="-792" y2="-380.2"/>
</g>
<g>
	<g>
		<g>
			<polygon class="st2" points="130.4,15.4 130.4,29.7 130.4,29.7 120.9,13.2 115.7,15.7 115.7,36.9 120.3,36.9 120.3,20 120.4,20 
				130.1,36.9 135.1,36.9 135.1,13.2 			"/>
			<path class="st2" d="M151.6,13.2L151.6,13.2l-6.9,3.4l-7.3,20.4h5.2l1.7-4.9h8.8l1.5,4.9h5.4L151.6,13.2z M145.6,27.9l3-9.4h0.1
				l2.9,9.4H145.6z"/>
			<path class="st2" d="M248.7,13.2L248.7,13.2l-6.9,3.4l-7.3,20.4h5.2l1.7-4.9h8.8l1.5,4.9h5.4L248.7,13.2z M242.7,27.9l3-9.4h0.1
				l2.9,9.4H242.7z"/>
			<polygon class="st2" points="176.4,13.2 159.5,13.2 157.1,17.4 157.1,17.4 164.2,17.4 164.2,36.9 169.2,36.9 169.2,17.4 
				174,17.4 			"/>
			<polygon class="st2" points="178.4,15.6 178.4,36.9 183.3,36.9 183.3,13.2 183.3,13.2 			"/>
			<path class="st2" d="M198,12.5c-0.2,0-0.5,0-0.7,0l-8.2,4c-1.5,1.9-2.5,4.6-2.5,8.5c0,11.2,8.3,12.5,11.4,12.5
				c3.1,0,11.4-1.4,11.4-12.5C209.4,13.9,201.1,12.5,198,12.5 M198,33.3c-2.7,0-6.5-1.7-6.5-8.3c0-6.7,3.8-8.3,6.5-8.3
				c2.7,0,6.5,1.7,6.5,8.3C204.5,31.7,200.7,33.3,198,33.3"/>
			<polygon class="st2" points="227.4,15.4 227.4,29.7 227.4,29.7 217.9,13.2 212.7,15.7 212.7,36.9 217.3,36.9 217.3,20 217.4,20 
				227.1,36.9 232.1,36.9 232.1,13.2 			"/>
			<polygon class="st2" points="276.3,32.6 264.5,32.6 264.5,13.2 259.5,15.6 259.5,36.9 273.8,36.9 			"/>
		</g>
		<g>
			<path class="st2" d="M131.6,56.2c1-0.5,2.9-1.5,2.9-4.9c0-2.4-1.5-6.1-7.3-6.1h-6.5l-5,2.4V69h10.1c4.9,0,6.2-0.8,7.5-2.2
				c1.3-1.2,2.1-3,2.1-4.9C135.3,59.6,134.6,57.3,131.6,56.2 M120.5,49.4h5.7c2.2,0,3.6,0.6,3.6,2.5c0,1.9-1.6,2.7-3.5,2.7h-5.8
				V49.4z M126.5,64.9h-6.1v-6.3h6.3c1.8,0,3.6,0.8,3.6,2.9C130.4,63.9,129,64.9,126.5,64.9"/>
			<polygon class="st2" points="175.3,47.5 175.3,61.8 175.2,61.8 165.8,45.3 160.6,47.8 160.6,69 165.2,69 165.2,52.1 165.3,52.1 
				175,69 179.9,69 179.9,45.3 			"/>
			<path class="st2" d="M150.1,45.3L150.1,45.3l-6.9,3.4L135.9,69h5.2l1.7-4.9h8.8l1.5,4.9h5.4L150.1,45.3z M144.1,60l3-9.4h0.1
				l2.9,9.4H144.1z"/>
			<polygon class="st2" points="204.5,45.3 196.8,46.6 189,54.9 189,45.3 184.1,47.7 184.1,69 189,69 189,61 191.4,58.6 198.7,69 
				205.1,69 194.8,55 			"/>
		</g>
	</g>
	<g>
		<path class="st3" d="M96.4,13v55.8l-30,8C65,77.2,64,77.4,63,77c-0.8-0.3-1.4-1.1-1.9-1.9l-9.3-12.7c-0.5-0.8-1.2-1.6-1.9-1.9
			c-1-0.4-2-0.1-3.4,0.2l-30.1,8V12.8l30-8c1.4-0.3,2.4-0.5,3.4-0.2c0.8,0.3,1.4,1.2,1.9,1.9L61,19.3c0.5,0.8,1.1,1.6,1.9,1.9
			c1,0.4,2,0.2,3.4-0.2L96.4,13z"/>
		
			<linearGradient id="SVGID_1_" gradientUnits="userSpaceOnUse" x1="-173.2938" y1="431.0587" x2="-170.2937" y2="431.0587" gradientTransform="matrix(25.8486 0 0 -25.8486 4498.231 11184.5957)">
			<stop  offset="0" style="stop-color:#EA272A"/>
			<stop  offset="5.615230e-03" style="stop-color:#EA272A"/>
			<stop  offset="0.3315" style="stop-color:#EA272A"/>
			<stop  offset="0.3826" style="stop-color:#C12327"/>
			<stop  offset="0.3933" style="stop-color:#B92327"/>
			<stop  offset="0.5562" style="stop-color:#B92327"/>
			<stop  offset="0.6348" style="stop-color:#EA272A"/>
			<stop  offset="0.8315" style="stop-color:#EA272A"/>
			<stop  offset="1" style="stop-color:#EA272A"/>
		</linearGradient>
		<path class="st4" d="M45,7.8l-26.2,7.1V68l27.7-7.4c1.4-0.3,2.4-0.5,3.4-0.2c0.8,0.3,1.4,1.1,1.9,1.9l9.3,12.7
			c0.5,0.8,1.2,1.6,1.9,1.9c1,0.4,2,0.2,3.4-0.2l30-8V16.4l-30.9,8.3c-1.4,0.3-2.4,0.5-3.4,0.2c-0.8-0.3-1.4-1.1-2-1.9L50.3,9.6
			c-0.6-0.8-1.1-1.6-1.9-1.9c-0.4-0.1-0.7-0.2-1.1-0.2C46.6,7.5,45.9,7.6,45,7.8"/>
	</g>
</g>
</svg>
