<?xml version="1.0" encoding="utf-8"?>
<!-- Generator: Adobe Illustrator 23.0.5, SVG Export Plug-In . SVG Version: 6.00 Build 0)  -->
<svg version="1.1" id="Layer_1" xmlns="http://www.w3.org/2000/svg" xmlns:xlink="http://www.w3.org/1999/xlink" x="0px" y="0px"
	 viewBox="0 0 288 81" style="enable-background:new 0 0 288 81;" xml:space="preserve">
<style type="text/css">
	.st0{display:none;}
	.st1{display:inline;fill:none;stroke:#FFFFFF;stroke-width:1.25;stroke-miterlimit:10;}
	.st2{display:inline;fill:none;stroke:#000000;stroke-width:0.25;stroke-miterlimit:10;}
	.st3{display:none;fill-rule:evenodd;clip-rule:evenodd;fill:#EA252B;}
	.st4{display:none;fill:#FFFFFF;}
	.st5{fill:#003F2D;}
	.st6{fill:#54B848;}
</style>
<g class="st0">
	<line class="st1" x1="-801" y1="-356.2" x2="-816" y2="-356.2"/>
	<line class="st1" x1="-792" y1="-365.2" x2="-792" y2="-380.2"/>
	<line class="st2" x1="-801" y1="-356.2" x2="-816" y2="-356.2"/>
	<line class="st2" x1="-792" y1="-365.2" x2="-792" y2="-380.2"/>
</g>
<path class="st3" d="M73.3,40.9C73.6,54.6,61.1,65,50.7,65H25.1L9,81h41.5c13.2,0,25.9-11.9,25.9-26.1c0-4.2-0.5-9.6-3.1-13.7
	L73.3,40.9L73.3,40.9z M68.9,51c1.6-2.9,2.4-6,2.6-9.1H59.8c0,2.9-0.4,5.9-1.5,9.1H68.9z M57.5,52.8c-1.3,3.3-4.5,7.7-7.5,10.1
	c5.9,0,12.7-2.6,17.6-10.1H57.5z M56.2,51c1-2.9,1.5-6,1.8-9.1H40.4c0.3,3.1,0.7,6.2,1.8,9.1H56.2z M40.2,51c-1-3.1-1.6-6.2-1.6-9.1
	H26.9c0.3,3.1,1,6.2,2.6,9.1H40.2L40.2,51z M49.2,61.1c2.3-2.1,4.9-5.5,6.2-8.3H43C44.3,55.6,46.9,59,49.2,61.1L49.2,61.1L49.2,61.1
	z M30.6,52.8c5.2,7.5,11.9,10.1,17.9,10.1c-3.1-2.4-6.5-6.7-7.5-10.1C40.9,52.8,30.6,52.8,30.6,52.8z M70,33.2
	c-0.3-0.8-0.7-1.5-1.1-2.2H58.3c1.1,2.8,1.5,5.9,1.5,9.1h11.7C71.3,37.7,70.8,35.4,70,33.2 M67.6,28.9C62.7,21.7,55.9,18.8,50,18.8
	c3.1,2.3,6.2,6.7,7.5,10.1H67.6z M42.2,31c-1,2.8-1.5,5.9-1.8,9.1H58c-0.3-3.1-0.8-6.3-1.8-9.1H42.2z M29.5,31
	c-1.5,2.8-2.3,5.9-2.6,9.1h11.7c0-3.1,0.5-6.3,1.6-9.1H29.5L29.5,31z M49.2,20.8c-2.4,2.1-4.9,5.2-6.3,8.1h12.5
	C54.1,26,51.5,22.9,49.2,20.8L49.2,20.8L49.2,20.8z M40.9,28.9c1.1-3.4,4.4-7.8,7.5-10.1c-6,0-12.7,2.9-17.9,10.1H40.9z M25.1,40.6
	C22.5,36.5,22,31,22,26.8C22,12.6,34.7,0.6,47.9,0.6h41.5L73.3,16.8H47.6C37.4,16.8,24.9,27.3,25.1,40.6L25.1,40.6L25.1,40.6z"/>
<path class="st3" d="M137.4,52.1c2.4,0,3.8-2.1,3.8-4.6s-1.3-4.7-3.8-4.7s-3.8,2.1-3.8,4.7S135,52.1,137.4,52.1
	C137.4,52.1,137.4,52.1,137.4,52.1z M137.4,56.4c-5.8,0-9.9-3.5-9.9-8.9s4.3-8.9,9.9-8.9s9.9,3.5,9.9,8.9S143.1,56.4,137.4,56.4
	L137.4,56.4z"/>
<path class="st3" d="M208.4,47.5c0-2.3-1.3-4.3-3.6-4.3c-2,0-3.6,1.7-3.6,4.3s1.3,4.3,3.6,4.3C206.9,51.8,208.4,50.1,208.4,47.5
	L208.4,47.5z M195.4,56V32h5.9v8.2h0.1c0.4-0.3,2.3-1.6,5.1-1.6c4.6,0,8,3.7,8,8.6c0,6.1-3.8,9.2-8,9.2c-3.2,0-4.9-1.5-5.3-1.9h-0.1
	L201,56H195.4L195.4,56z"/>
<path class="st3" d="M166.6,30.4c-1.8,0-3.3,1.5-3.3,3.3c0,1.8,1.5,3.3,3.3,3.3s3.3-1.5,3.3-3.3C169.9,31.9,168.4,30.4,166.6,30.4
	L166.6,30.4z M163.6,39h5.9v17h-5.9V39C163.6,39,163.6,39,163.6,39z"/>
<path class="st3" d="M239.8,56h5.8v-8.8c0-2.1,1.4-3.5,3.1-3.5c2,0,3.1,1.3,3.1,3.5V56h5.8V45.8c0-3.9-2.5-7.2-7-7.2
	c-3.1,0-4.6,1.7-5.4,2.3H245L245,39h-5.2V56L239.8,56z M239.8,56L239.8,56z"/>
<polygon class="st3" points="261.2,56 267.1,56 267.1,48.1 267.2,48.1 272.4,56 279,56 272.7,47 278.8,39 272.3,39 267.2,46 
	267.1,46 267.1,32 261.2,32 261.2,56 "/>
<path class="st3" d="M126,39.2c-0.4-0.1-2.1-0.7-4.2-0.7c-5.3,0-9.3,3.3-9.3,8.9c0,5.1,3.6,8.9,9.1,8.9c2.3,0,4.1-0.6,4.5-0.7
	l-0.3-5c-0.5,0.2-1.6,0.9-3,0.9c-2.4,0-4.1-1.7-4.1-4.1c0-2.5,1.9-4.1,4.2-4.1c1.3,0,2.5,0.6,2.9,0.8L126,39.2L126,39.2L126,39.2z"
	/>
<path class="st3" d="M178.5,47.3c0,2.8,1.6,4.6,3.6,4.6c1.8,0,3.6-1.7,3.6-4.3s-1.6-4.4-3.6-4.4C180,43.1,178.5,45,178.5,47.3
	C178.5,47.3,178.5,47.3,178.5,47.3z M191.6,39v17h-5.8l-0.1-1.7h-0.1c-0.6,0.6-2,2.1-5.7,2.1c-4.1,0-7.7-3.6-7.7-8.9
	c0-4.9,3.2-8.9,8.1-8.9c3.3,0,4.7,1.5,5.2,1.9h0.1l0.1-1.5L191.6,39L191.6,39z"/>
<path class="st3" d="M222.9,47.3c0,2.8,1.6,4.6,3.6,4.6c1.8,0,3.6-1.7,3.6-4.3s-1.6-4.4-3.6-4.4C224.4,43.1,222.9,45,222.9,47.3
	L222.9,47.3L222.9,47.3z M236,39v17h-5.8l-0.1-1.7H230c-0.6,0.6-2,2.1-5.7,2.1c-4.1,0-7.7-3.6-7.7-8.9c0-4.9,3.2-8.9,8.1-8.9
	c3.3,0,4.7,1.5,5.2,1.9h0.1l0.1-1.5L236,39L236,39z"/>
<path class="st3" d="M93.4,55.4c1.7,0.5,4.2,1,6.8,1c5.1,0,10.1-1.8,10.1-7.3c0-7.6-10.5-6.6-10.5-9.6c0-1.6,1.6-1.9,3.2-1.9
	c2.2,0,5,1.1,5.6,1.3l0.5-5.3c-1.5-0.5-3.9-0.8-6-0.8c-5,0-9.9,1.9-9.9,6.9c0,7.5,10.5,5.9,10.5,9.8c0,1.5-1.5,2.1-3.4,2.1
	c-2.6,0-5.1-1.3-6.2-1.8L93.4,55.4L93.4,55.4L93.4,55.4z"/>
<path class="st3" d="M160.7,51.4c-0.3,0.1-1.1,0.3-1.6,0.3c-1.2,0-2.5-0.6-2.5-2.6v-5.8h3.7V39h-3.7v-5.5h-5.9V39h-2.6v4.3h2.6V50
	c0,3.7,1.7,6.4,6.1,6.4c1.3,0,2.4-0.2,3.2-0.3L160.7,51.4L160.7,51.4L160.7,51.4z"/>
<path class="st4" d="M16.5,10.6h83.3v69.7H16.5V10.6z"/>
<path class="st5" d="M146.3,37.5h3.7c2.6,0,5.2,0.6,5.2,3.7c0,2.8-2.7,3.7-5.3,3.7h-3.6L146.3,37.5z M133.3,52.4h21
	c7.5,0,14.9-0.9,14.9-10.1c0-3.6-3.1-7.6-8.1-8.2V34c4.8-1.2,7.5-3.9,7.5-8.9c0-6.9-6.2-8.9-12.4-8.9h-22.8L133.3,52.4z M146.3,23
	h3.8c2.5,0,4.8,0.8,4.8,3.5c0,2.7-2.6,3.5-5.1,3.5h-3.5L146.3,23L146.3,23z M190.3,41.3c0,2.3-1.4,4.8-4,4.8c-2,0-3.1-0.7-3.1-2.6
	c0-2.8,3.1-3.1,5.8-3.1h1.3L190.3,41.3L190.3,41.3z M174.3,33.8c2.6-1.3,5.9-2.3,9-2.3c3.3,0,6.8,0.4,6.9,3.9
	c-1.2-0.1-3.3-0.4-5.1-0.4c-6.5,0-13.9,1.7-13.9,9.9c0,5.6,4.9,7.9,9.9,7.9c3.7,0,7-1.5,8.8-4.5h0.1v3.9h12.1V35.9
	c0-9.8-9.1-11.2-16.5-11.2c-5.1,0-7.4,0.5-11.3,1.6L174.3,33.8L174.3,33.8z M205.9,25.4h12.3V30h0.1c1.6-3.8,5.1-5.3,8.8-5.3
	c6.9,0,9.5,3.6,9.5,8.9v18.8h-13.1V36.8c0-1.6,0-3.7-2.3-3.7c-2.3,0-2.3,2.1-2.3,3.7v15.5h-13.1L205.9,25.4L205.9,25.4z M261.7,25.4
	h14.8l-9.1,11.9l9.5,15.1h-15.2l-7.4-13.1h-0.1v13.1H241V13.5h13.1v22.6h0.1L261.7,25.4z"/>
<path class="st6" d="M11.2,80.8H107V0.2H11.2V80.8z M74.1,63.4H51.8V25.6H63v31.1h10.8c7.4,0,10.6-4.9,10.6-17.3
	c0-12.6-3.6-16.2-11.1-16.2H48.6v40.3H37.5V23.1H21.3v-6.7h55.4c13.4,0,19.7,6.5,19.7,22.8C96.4,60.8,86.9,63.4,74.1,63.4"/>
</svg>
