<?xml version="1.0" encoding="utf-8"?>
<!-- Generator: Adobe Illustrator 23.0.5, SVG Export Plug-In . SVG Version: 6.00 Build 0)  -->
<svg version="1.1" id="Layer_1" xmlns="http://www.w3.org/2000/svg" xmlns:xlink="http://www.w3.org/1999/xlink" x="0px" y="0px"
	 viewBox="0 0 150 50" style="enable-background:new 0 0 150 50;" xml:space="preserve">
<style type="text/css">
	.st0{fill:#18B47E;}
	.st1{fill:#FFFFFF;}
</style>
<g>
	<path class="st0" d="M34.2,47.3c-1.2,1.2-3.2,0.6-3.6-1l-2.4-8.9l-2.4-8.9c-0.4-1.6,1-3.1,2.6-2.6l8.9,2.4l8.9,2.4
		c1.6,0.4,2.1,2.4,1,3.6l-2,1.1c-4.2,2.2-7.7,5.7-10,10L34.2,47.3z"/>
	<path class="st0" d="M23.2,36.8H15c-7.5,0-13.6-6.1-13.6-13.6v-7.8C1.4,8,7.5,1.9,15,1.9h8.2c7.5,0,13.6,6.1,13.6,13.6v7.8h0
		c-3.3,0-6-2.7-6-6v-1.9c0-4.2-3.4-7.6-7.6-7.6H15c-4.2,0-7.6,3.4-7.6,7.6v7.8c0,4.2,3.4,7.6,7.6,7.6h2.3
		C20.6,30.9,23.2,33.6,23.2,36.8L23.2,36.8z"/>
</g>
<path class="st1" d="M51.9,16.6V8.4h0c2,0,3.9,1.1,4.9,2.8l2.4,4.3h0.1l-0.1-3.3V8.4h0c1.4,0,2.6,1.2,2.6,2.6v8.3h0
	c-1.9,0-3.7-1-4.6-2.7l-2.5-4.3h-0.1l0.1,3v4h0C53.2,19.3,51.9,18.1,51.9,16.6z"/>
<path class="st1" d="M63.3,19.3V8.4h8.1v2.3h-6l0.6-0.6v7.5L65.4,17h6v2.3H63.3z M65.4,14.9v-2.1h5.2v2.1H65.4z"/>
<path class="st1" d="M72.5,19.3V8.4h8.1v2.3h-6l0.6-0.6v7.5L74.7,17h6v2.3H72.5z M74.7,14.9v-2.1h5.2v2.1H74.7z"/>
<path class="st1" d="M81.8,19.3V8.4h4.8c1.1,0,2,0.2,2.8,0.7c0.8,0.5,1.3,1.1,1.7,1.9c0.4,0.8,0.6,1.8,0.6,2.9
	c0,0.8-0.1,1.5-0.3,2.2c-0.2,0.7-0.5,1.2-1,1.7c-0.4,0.5-1,0.9-1.6,1.1s-1.3,0.4-2.2,0.4H81.8z M84.4,17.1h1.6c0.4,0,0.8,0,1.1-0.1
	c0.3-0.1,0.6-0.3,0.9-0.5c0.3-0.2,0.5-0.6,0.6-1c0.1-0.4,0.2-1,0.2-1.6c0-0.8-0.1-1.5-0.4-1.9c-0.2-0.5-0.6-0.8-1-1
	s-0.9-0.3-1.4-0.3h-1.6V17.1z"/>
<path class="st1" d="M94.7,19.3l3.5-10.9h3.8l3.5,10.9h-2.8l-2.2-7.5l-0.4-1.4H100l-0.4,1.4l-2.2,7.5H94.7z M97.9,17.2l0.6-2.1h3.2
	l0.6,2.1H97.9z"/>
<path class="st0" d="M109,19.3V8.4l0,0c1.5,0,2.7,1.2,2.7,2.7v6.3l-0.4-0.4h5.1v0c0,1.3-1.1,2.4-2.4,2.4H109z"/>
<path class="st0" d="M121.5,19.5c-0.8,0-1.6-0.1-2.3-0.4c-0.7-0.2-1.3-0.6-1.7-1.1c-0.5-0.5-0.9-1.1-1.1-1.8
	c-0.3-0.7-0.4-1.5-0.4-2.4c0-0.9,0.1-1.7,0.4-2.4c0.3-0.7,0.6-1.3,1.1-1.8c0.5-0.5,1.1-0.8,1.7-1.1c0.7-0.2,1.4-0.4,2.3-0.4
	c0.8,0,1.6,0.1,2.3,0.4c0.7,0.2,1.3,0.6,1.8,1.1c0.5,0.5,0.9,1.1,1.1,1.8c0.3,0.7,0.4,1.5,0.4,2.4c0,0.9-0.1,1.7-0.4,2.4
	c-0.3,0.7-0.6,1.3-1.1,1.8c-0.5,0.5-1.1,0.8-1.8,1.1C123.1,19.4,122.4,19.5,121.5,19.5z M121.5,17.2c0.6,0,1-0.1,1.5-0.4
	c0.4-0.2,0.7-0.6,1-1.1c0.2-0.5,0.3-1.1,0.3-1.9c0-0.6-0.1-1.1-0.2-1.5c-0.1-0.4-0.3-0.8-0.6-1c-0.2-0.3-0.5-0.5-0.9-0.6
	c-0.3-0.1-0.7-0.2-1.1-0.2c-0.6,0-1,0.1-1.5,0.4c-0.4,0.2-0.7,0.6-1,1.1c-0.2,0.5-0.3,1.1-0.3,1.9c0,0.6,0.1,1.1,0.2,1.5
	c0.1,0.4,0.3,0.8,0.6,1c0.2,0.3,0.5,0.5,0.9,0.6C120.7,17.1,121.1,17.2,121.5,17.2z"/>
<path class="st0" d="M127.1,19.3l3.5-10.9h3.8l3.5,10.9h-2.8l-2.2-7.5l-0.4-1.4h-0.1l-0.4,1.4l-2.2,7.5H127.1z M130.3,17.2l0.6-2.1
	h3.2l0.6,2.1H130.3z"/>
<path class="st0" d="M138.7,19.3V8.4h3.3l4,7.1h0.1l-0.1-3.3V8.4h2.6v10.9h-3.1l-4-7h-0.1l0.1,3v4H138.7z"/>
<path class="st1" d="M66.6,28.7L66.6,28.7c0-1.3,1-2.3,2.3-2.3h6.7v0c0,1.3-1,2.3-2.3,2.3H66.6z M69.8,34.6v-6.1h2.7v8.8h0
	C71,37.3,69.8,36.1,69.8,34.6z"/>
<path class="st1" d="M84.3,37.4c-0.8,0-1.6-0.1-2.3-0.4c-0.7-0.2-1.3-0.6-1.7-1.1c-0.5-0.5-0.9-1.1-1.1-1.8s-0.4-1.5-0.4-2.4
	c0-0.9,0.1-1.7,0.4-2.4c0.3-0.7,0.6-1.3,1.1-1.8c0.5-0.5,1.1-0.8,1.7-1.1c0.7-0.2,1.4-0.4,2.3-0.4c0.8,0,1.6,0.1,2.3,0.4
	c0.7,0.2,1.3,0.6,1.8,1.1c0.5,0.5,0.9,1.1,1.1,1.8c0.3,0.7,0.4,1.5,0.4,2.4c0,0.9-0.1,1.7-0.4,2.4c-0.3,0.7-0.6,1.3-1.1,1.8
	c-0.5,0.5-1.1,0.8-1.8,1.1C85.9,37.3,85.1,37.4,84.3,37.4z M84.3,35.2c0.6,0,1-0.1,1.5-0.4c0.4-0.2,0.7-0.6,1-1.1
	c0.2-0.5,0.3-1.1,0.3-1.9c0-0.6-0.1-1.1-0.2-1.5s-0.3-0.8-0.6-1c-0.2-0.3-0.5-0.5-0.9-0.6c-0.3-0.1-0.7-0.2-1.1-0.2
	c-0.6,0-1,0.1-1.5,0.4c-0.4,0.2-0.7,0.6-1,1.1c-0.2,0.5-0.3,1.1-0.3,1.9c0,0.6,0.1,1.1,0.2,1.5c0.1,0.4,0.3,0.8,0.6,1
	c0.2,0.3,0.5,0.5,0.9,0.6C83.5,35.1,83.9,35.2,84.3,35.2z"/>
<path class="st1" d="M94.3,37.3V26.4H99c1.1,0,2,0.2,2.8,0.7c0.8,0.5,1.3,1.1,1.7,1.9c0.4,0.8,0.6,1.8,0.6,2.9
	c0,0.8-0.1,1.5-0.3,2.2s-0.5,1.2-1,1.7c-0.4,0.5-1,0.9-1.6,1.1s-1.3,0.4-2.2,0.4H94.3z M96.9,35h1.6c0.4,0,0.8,0,1.1-0.1
	c0.3-0.1,0.6-0.3,0.9-0.5c0.3-0.2,0.5-0.6,0.6-1c0.1-0.4,0.2-1,0.2-1.6c0-0.8-0.1-1.5-0.4-1.9c-0.2-0.5-0.6-0.8-1-0.9
	c-0.4-0.2-0.9-0.3-1.4-0.3h-1.6V35z"/>
<path class="st1" d="M107.5,37.3l3.5-10.9h3.8l3.5,10.9h-2.8l-2.2-7.5l-0.4-1.4h-0.1l-0.4,1.4l-2.2,7.5H107.5z M110.7,35.2l0.6-2.1
	h3.2l0.6,2.1H110.7z"/>
<path class="st1" d="M123.9,37.3v-4.1l-4-6.8h3.1l1.4,2.7l0.9,1.7h0.1l0.9-1.7l1.4-2.7h3l-4.1,6.8v4.1H123.9z"/>
</svg>
