<?xml version="1.0" encoding="utf-8"?>
<!-- Generator: Adobe Illustrator 23.0.5, SVG Export Plug-In . SVG Version: 6.00 Build 0)  -->
<svg version="1.1" xmlns="http://www.w3.org/2000/svg" xmlns:xlink="http://www.w3.org/1999/xlink" x="0px" y="0px"
	 viewBox="0 0 150 50" style="enable-background:new 0 0 150 50;" xml:space="preserve">
<style type="text/css">
	.st0{display:none;}
	.st1{display:inline;}
	.st2{fill:#18B47E;}
	.st3{fill:#FFFFFF;}
</style>
<g id="Layer_1" class="st0">
	<g class="st1">
		<g>
			<path class="st2" d="M34.2,47.3c-1.2,1.2-3.2,0.6-3.6-1l-2.4-8.9l-2.4-8.9c-0.4-1.6,1-3.1,2.6-2.6l8.9,2.4l8.9,2.4
				c1.6,0.4,2.1,2.4,1,3.6l-2,1.1c-4.2,2.2-7.7,5.7-10,10L34.2,47.3z"/>
			<path class="st2" d="M23.2,36.8H15c-7.5,0-13.6-6.1-13.6-13.6v-7.8C1.4,8,7.5,1.9,15,1.9h8.2c7.5,0,13.6,6.1,13.6,13.6v7.8h0
				c-3.3,0-6-2.7-6-6v-1.9c0-4.2-3.4-7.6-7.6-7.6H15c-4.2,0-7.6,3.4-7.6,7.6v7.8c0,4.2,3.4,7.6,7.6,7.6h2.3
				C20.6,30.9,23.2,33.6,23.2,36.8L23.2,36.8z"/>
		</g>
		<path class="st3" d="M51.9,12.1V3.9h0c2,0,3.9,1.1,4.9,2.8l2.4,4.3h0.1l-0.1-3.3V3.9h0c1.4,0,2.6,1.2,2.6,2.6v8.3h0
			c-1.9,0-3.7-1-4.6-2.7l-2.5-4.3h-0.1l0.1,3v4h0C53.2,14.8,51.9,13.6,51.9,12.1z"/>
		<path class="st3" d="M63.3,14.8V3.9h8.1v2.3h-6L66,5.6v7.5l-0.6-0.6h6v2.3H63.3z M65.4,10.4V8.2h5.2v2.1H65.4z"/>
		<path class="st3" d="M72.5,14.8V3.9h8.1v2.3h-6l0.6-0.6v7.5l-0.6-0.6h6v2.3H72.5z M74.7,10.4V8.2h5.2v2.1H74.7z"/>
		<path class="st3" d="M81.8,14.8V3.9h4.8c1.1,0,2,0.2,2.8,0.7C90.1,5,90.6,5.7,91,6.5c0.4,0.8,0.6,1.8,0.6,2.9
			c0,0.8-0.1,1.5-0.3,2.2c-0.2,0.7-0.5,1.2-1,1.7c-0.4,0.5-1,0.9-1.6,1.1c-0.6,0.3-1.3,0.4-2.2,0.4H81.8z M84.4,12.5h1.6
			c0.4,0,0.8,0,1.1-0.1c0.3-0.1,0.6-0.3,0.9-0.5c0.3-0.2,0.5-0.6,0.6-1c0.1-0.4,0.2-1,0.2-1.6c0-0.8-0.1-1.5-0.4-1.9
			c-0.2-0.5-0.6-0.8-1-1s-0.9-0.3-1.4-0.3h-1.6V12.5z"/>
		<path class="st3" d="M94.7,14.8l3.5-10.9h3.8l3.5,10.9h-2.8l-2.2-7.5l-0.4-1.4H100l-0.4,1.4l-2.2,7.5H94.7z M97.9,12.7l0.6-2.1
			h3.2l0.6,2.1H97.9z"/>
		<path class="st2" d="M109,14.8V3.9l0,0c1.5,0,2.7,1.2,2.7,2.7v6.3l-0.4-0.4h5.1v0c0,1.3-1.1,2.4-2.4,2.4H109z"/>
		<path class="st2" d="M121.5,15c-0.8,0-1.6-0.1-2.3-0.4c-0.7-0.2-1.3-0.6-1.7-1.1c-0.5-0.5-0.9-1.1-1.1-1.8s-0.4-1.5-0.4-2.4
			c0-0.9,0.1-1.7,0.4-2.4s0.6-1.3,1.1-1.8c0.5-0.5,1.1-0.8,1.7-1.1c0.7-0.2,1.4-0.4,2.3-0.4c0.8,0,1.6,0.1,2.3,0.4
			c0.7,0.2,1.3,0.6,1.8,1.1c0.5,0.5,0.9,1.1,1.1,1.8c0.3,0.7,0.4,1.5,0.4,2.4c0,0.9-0.1,1.7-0.4,2.4c-0.3,0.7-0.6,1.3-1.1,1.8
			c-0.5,0.5-1.1,0.8-1.8,1.1C123.1,14.8,122.4,15,121.5,15z M121.5,12.7c0.6,0,1-0.1,1.5-0.4c0.4-0.2,0.7-0.6,1-1.1
			c0.2-0.5,0.3-1.1,0.3-1.9c0-0.6-0.1-1.1-0.2-1.5c-0.1-0.4-0.3-0.8-0.6-1c-0.2-0.3-0.5-0.5-0.9-0.6C122.3,6.1,122,6,121.5,6
			c-0.6,0-1,0.1-1.5,0.4c-0.4,0.2-0.7,0.6-1,1.1c-0.2,0.5-0.3,1.1-0.3,1.9c0,0.6,0.1,1.1,0.2,1.5c0.1,0.4,0.3,0.8,0.6,1
			c0.2,0.3,0.5,0.5,0.9,0.6C120.7,12.6,121.1,12.7,121.5,12.7z"/>
		<path class="st2" d="M127.1,14.8l3.5-10.9h3.8l3.5,10.9h-2.8l-2.2-7.5l-0.4-1.4h-0.1L132,7.3l-2.2,7.5H127.1z M130.3,12.7l0.6-2.1
			h3.2l0.6,2.1H130.3z"/>
		<path class="st2" d="M138.7,14.8V3.9h3.3l4,7.1h0.1L146,7.7V3.9h2.6v10.9h-3.1l-4-7h-0.1l0.1,3v4H138.7z"/>
		<path class="st3" d="M66.6,24.2L66.6,24.2c0-1.3,1-2.3,2.3-2.3h6.7v0c0,1.3-1,2.3-2.3,2.3H66.6z M69.8,30.1v-6.1h2.7v8.8h0
			C71,32.8,69.8,31.6,69.8,30.1z"/>
		<path class="st3" d="M84.3,32.9c-0.8,0-1.6-0.1-2.3-0.4c-0.7-0.2-1.3-0.6-1.7-1.1c-0.5-0.5-0.9-1.1-1.1-1.8
			c-0.3-0.7-0.4-1.5-0.4-2.4s0.1-1.7,0.4-2.4c0.3-0.7,0.6-1.3,1.1-1.8c0.5-0.5,1.1-0.8,1.7-1.1c0.7-0.2,1.4-0.4,2.3-0.4
			c0.8,0,1.6,0.1,2.3,0.4c0.7,0.2,1.3,0.6,1.8,1.1c0.5,0.5,0.9,1.1,1.1,1.8c0.3,0.7,0.4,1.5,0.4,2.4s-0.1,1.7-0.4,2.4
			c-0.3,0.7-0.6,1.3-1.1,1.8c-0.5,0.5-1.1,0.8-1.8,1.1C85.9,32.8,85.1,32.9,84.3,32.9z M84.3,30.6c0.6,0,1-0.1,1.5-0.4
			c0.4-0.2,0.7-0.6,1-1.1c0.2-0.5,0.3-1.1,0.3-1.9c0-0.6-0.1-1.1-0.2-1.5s-0.3-0.8-0.6-1c-0.2-0.3-0.5-0.5-0.9-0.6
			c-0.3-0.1-0.7-0.2-1.1-0.2c-0.6,0-1,0.1-1.5,0.4c-0.4,0.2-0.7,0.6-1,1.1c-0.2,0.5-0.3,1.1-0.3,1.9c0,0.6,0.1,1.1,0.2,1.5
			c0.1,0.4,0.3,0.8,0.6,1c0.2,0.3,0.5,0.5,0.9,0.6C83.5,30.6,83.9,30.6,84.3,30.6z"/>
		<path class="st3" d="M94.3,32.8V21.9H99c1.1,0,2,0.2,2.8,0.7c0.8,0.5,1.3,1.1,1.7,1.9c0.4,0.8,0.6,1.8,0.6,2.9
			c0,0.8-0.1,1.5-0.3,2.2c-0.2,0.7-0.5,1.2-1,1.7c-0.4,0.5-1,0.9-1.6,1.1s-1.3,0.4-2.2,0.4H94.3z M96.9,30.5h1.6
			c0.4,0,0.8,0,1.1-0.1c0.3-0.1,0.6-0.3,0.9-0.5c0.3-0.2,0.5-0.6,0.6-1c0.1-0.4,0.2-1,0.2-1.6c0-0.8-0.1-1.5-0.4-1.9
			c-0.2-0.5-0.6-0.8-1-0.9c-0.4-0.2-0.9-0.3-1.4-0.3h-1.6V30.5z"/>
		<path class="st3" d="M107.5,32.8l3.5-10.9h3.8l3.5,10.9h-2.8l-2.2-7.5l-0.4-1.4h-0.1l-0.4,1.4l-2.2,7.5H107.5z M110.7,30.7
			l0.6-2.1h3.2l0.6,2.1H110.7z"/>
		<path class="st3" d="M123.9,32.8v-4.1l-4-6.8h3.1l1.4,2.7l0.9,1.7h0.1l0.9-1.7l1.4-2.7h3l-4.1,6.8v4.1H123.9z"/>
	</g>
</g>
<g id="Layer_2">
	<g>
		<g>
			<path class="st3" d="M34.2,47.4c-1.2,1.2-3.2,0.6-3.6-1l-2.4-8.9l-2.4-8.9c-0.4-1.6,1-3.1,2.6-2.6l8.9,2.4l8.9,2.4
				c1.6,0.4,2.1,2.4,1,3.6l-2,1.1c-4.2,2.2-7.7,5.7-10,10L34.2,47.4z"/>
			<path class="st3" d="M23.2,36.9H15c-7.5,0-13.6-6.1-13.6-13.6v-7.8C1.4,8.1,7.5,2,15,2h8.2c7.5,0,13.6,6.1,13.6,13.6v7.8h0
				c-3.3,0-6-2.7-6-6v-1.9c0-4.2-3.4-7.6-7.6-7.6H15c-4.2,0-7.6,3.4-7.6,7.6v7.8c0,4.2,3.4,7.6,7.6,7.6h2.3
				C20.6,31,23.2,33.7,23.2,36.9L23.2,36.9z"/>
		</g>
		<path class="st3" d="M51.9,12.2V4l0,0c2,0,3.9,1.1,4.9,2.8l2.4,4.3h0.1l-0.1-3.3V4l0,0c1.4,0,2.6,1.2,2.6,2.6v8.3h0
			c-1.9,0-3.7-1-4.6-2.7l-2.5-4.3h-0.1l0.1,3v4h0C53.2,14.9,51.9,13.7,51.9,12.2z"/>
		<path class="st3" d="M63.3,14.9V4h8.1v2.3h-6L66,5.7v7.5l-0.6-0.6h6v2.3H63.3z M65.5,10.5V8.3h5.2v2.1H65.5z"/>
		<path class="st3" d="M72.6,14.9V4h8.1v2.3h-6l0.6-0.6v7.5l-0.6-0.6h6v2.3H72.6z M74.7,10.5V8.3h5.2v2.1H74.7z"/>
		<path class="st3" d="M81.8,14.9V4h4.8c1.1,0,2,0.2,2.8,0.7c0.8,0.5,1.3,1.1,1.7,1.9c0.4,0.8,0.6,1.8,0.6,2.9
			c0,0.8-0.1,1.5-0.3,2.2c-0.2,0.7-0.5,1.2-1,1.7c-0.4,0.5-1,0.9-1.6,1.1c-0.6,0.3-1.3,0.4-2.2,0.4H81.8z M84.4,12.6h1.6
			c0.4,0,0.8,0,1.1-0.1c0.3-0.1,0.6-0.3,0.9-0.5c0.3-0.2,0.5-0.6,0.6-1c0.1-0.4,0.2-1,0.2-1.6c0-0.8-0.1-1.5-0.4-1.9
			c-0.2-0.5-0.6-0.8-1-1s-0.9-0.3-1.4-0.3h-1.6V12.6z"/>
		<path class="st3" d="M94.7,14.9L98.2,4h3.8l3.5,10.9h-2.8l-2.2-7.5L100.1,6H100l-0.4,1.4l-2.2,7.5H94.7z M97.9,12.8l0.6-2.1h3.2
			l0.6,2.1H97.9z"/>
		<path class="st3" d="M109,14.9V4h0c1.5,0,2.7,1.2,2.7,2.7v6.3l-0.4-0.4h5.1v0c0,1.3-1.1,2.4-2.4,2.4H109z"/>
		<path class="st3" d="M121.6,15.1c-0.8,0-1.6-0.1-2.3-0.4c-0.7-0.2-1.3-0.6-1.7-1.1c-0.5-0.5-0.9-1.1-1.1-1.8
			c-0.3-0.7-0.4-1.5-0.4-2.4c0-0.9,0.1-1.7,0.4-2.4s0.6-1.3,1.1-1.8c0.5-0.5,1.1-0.8,1.7-1.1c0.7-0.2,1.4-0.4,2.3-0.4
			c0.8,0,1.6,0.1,2.3,0.4c0.7,0.2,1.3,0.6,1.8,1.1c0.5,0.5,0.9,1.1,1.1,1.8c0.3,0.7,0.4,1.5,0.4,2.4c0,0.9-0.1,1.7-0.4,2.4
			c-0.3,0.7-0.6,1.3-1.1,1.8c-0.5,0.5-1.1,0.8-1.8,1.1C123.1,14.9,122.4,15.1,121.6,15.1z M121.6,12.8c0.6,0,1-0.1,1.5-0.4
			c0.4-0.2,0.7-0.6,1-1.1c0.2-0.5,0.3-1.1,0.3-1.9c0-0.6-0.1-1.1-0.2-1.5c-0.1-0.4-0.3-0.8-0.6-1c-0.2-0.3-0.5-0.5-0.9-0.6
			c-0.3-0.1-0.7-0.2-1.1-0.2c-0.6,0-1,0.1-1.5,0.4c-0.4,0.2-0.7,0.6-1,1.1s-0.3,1.1-0.3,1.9c0,0.6,0.1,1.1,0.2,1.5
			c0.1,0.4,0.3,0.8,0.6,1c0.2,0.3,0.5,0.5,0.9,0.6C120.8,12.7,121.1,12.8,121.6,12.8z"/>
		<path class="st3" d="M127.1,14.9L130.6,4h3.8l3.5,10.9h-2.8l-2.2-7.5L132.5,6h-0.1L132,7.4l-2.2,7.5H127.1z M130.3,12.8l0.6-2.1
			h3.2l0.6,2.1H130.3z"/>
		<path class="st3" d="M138.7,14.9V4h3.3l4,7.1h0.1L146,7.8V4h2.6v10.9h-3.1l-4-7h-0.1l0.1,3v4H138.7z"/>
		<path class="st3" d="M66.7,24.3L66.7,24.3c0-1.3,1-2.3,2.3-2.3h6.7v0c0,1.3-1,2.3-2.3,2.3H66.7z M69.8,30.2V24h2.7v8.8l0,0
			C71,32.9,69.8,31.7,69.8,30.2z"/>
		<path class="st3" d="M84.3,33c-0.8,0-1.6-0.1-2.3-0.4c-0.7-0.2-1.3-0.6-1.7-1.1c-0.5-0.5-0.9-1.1-1.1-1.8
			c-0.3-0.7-0.4-1.5-0.4-2.4c0-0.9,0.1-1.7,0.4-2.4s0.6-1.3,1.1-1.8c0.5-0.5,1.1-0.8,1.7-1.1c0.7-0.2,1.4-0.4,2.3-0.4
			c0.8,0,1.6,0.1,2.3,0.4c0.7,0.2,1.3,0.6,1.8,1.1c0.5,0.5,0.9,1.1,1.1,1.8c0.3,0.7,0.4,1.5,0.4,2.4c0,0.9-0.1,1.7-0.4,2.4
			c-0.3,0.7-0.6,1.3-1.1,1.8c-0.5,0.5-1.1,0.8-1.8,1.1C85.9,32.9,85.2,33,84.3,33z M84.3,30.7c0.6,0,1-0.1,1.5-0.4
			c0.4-0.2,0.7-0.6,1-1.1c0.2-0.5,0.3-1.1,0.3-1.9c0-0.6-0.1-1.1-0.2-1.5s-0.3-0.8-0.6-1c-0.2-0.3-0.5-0.5-0.9-0.6
			c-0.3-0.1-0.7-0.2-1.1-0.2c-0.6,0-1,0.1-1.5,0.4c-0.4,0.2-0.7,0.6-1,1.1c-0.2,0.5-0.3,1.1-0.3,1.9c0,0.6,0.1,1.1,0.2,1.5
			c0.1,0.4,0.3,0.8,0.6,1c0.2,0.3,0.5,0.5,0.9,0.6C83.5,30.7,83.9,30.7,84.3,30.7z"/>
		<path class="st3" d="M94.3,32.9V22h4.8c1.1,0,2,0.2,2.8,0.7c0.8,0.5,1.3,1.1,1.7,1.9c0.4,0.8,0.6,1.8,0.6,2.9
			c0,0.8-0.1,1.5-0.3,2.2c-0.2,0.7-0.5,1.2-1,1.7c-0.4,0.5-1,0.9-1.6,1.1s-1.3,0.4-2.2,0.4H94.3z M97,30.6h1.6c0.4,0,0.8,0,1.1-0.1
			c0.3-0.1,0.6-0.3,0.9-0.5c0.3-0.2,0.5-0.6,0.6-1c0.1-0.4,0.2-1,0.2-1.6c0-0.8-0.1-1.5-0.4-1.9c-0.2-0.5-0.6-0.8-1-0.9
			s-0.9-0.3-1.4-0.3H97V30.6z"/>
		<path class="st3" d="M107.5,32.9L111,22h3.8l3.5,10.9h-2.8l-2.2-7.5L113,24h-0.1l-0.4,1.4l-2.2,7.5H107.5z M110.7,30.8l0.6-2.1
			h3.2l0.6,2.1H110.7z"/>
		<path class="st3" d="M123.9,32.9v-4.1l-4-6.8h3.1l1.4,2.7l0.9,1.7h0.1l0.9-1.7l1.4-2.7h3l-4.1,6.8v4.1H123.9z"/>
	</g>
</g>
</svg>
