<?xml version="1.0" encoding="utf-8"?>
<svg version="1.1" id="Layer_1" xmlns="http://www.w3.org/2000/svg" x="0px" y="0px" viewBox="0 0 200 200" xml:space="preserve">
<style type="text/css">
	.st4{fill:#18B47E;}
</style>
<g>
	<path class="st4" d="M140.3,194.6c-5,5-13.5,2.7-15.3-4.1l-10-37.6l-10.1-37.7c-1.8-6.8,4.4-13,11.2-11.2l37.7,10.1l37.7,10.1
		c6.8,1.8,9.1,10.3,4.1,15.3L187,144c-17.9,9.5-32.6,24.1-42.1,42.1L140.3,194.6z"/>
	<path class="st4" d="M93.9,150.5H59.2c-31.7,0-57.4-25.7-57.4-57.4v-33c0-31.7,25.7-57.4,57.4-57.4h34.7
		c31.7,0,57.4,25.7,57.4,57.4v33l0,0c-13.9,0-25.2-11.3-25.2-25.2V60c0-17.8-14.4-32.2-32.2-32.2H59.2C41.4,27.8,27,42.3,27,60.1
		v33c0,17.8,14.4,32.2,32.2,32.2h9.6C82.7,125.3,93.9,136.6,93.9,150.5L93.9,150.5z"/>
</g>
</svg>
